<svg xmlns="http://www.w3.org/2000/svg" viewBox="0 0 841.9 595.3"><g fill="#61DAFB"><path d="M666.3 296.5c0 58.9-47.8 106.7-106.7 106.7-58.9 0-106.7-47.8-106.7-106.7 0-58.9 47.8-106.7 106.7-106.7 58.9 0 106.7 47.8 106.7 106.7z"/><path d="M667.4 296.5c0 59.5-48.3 107.8-107.8 107.8-59.5 0-107.8-48.3-107.8-107.8 0-59.5 48.3-107.8 107.8-107.8 59.5 0 107.8 48.3 107.8 107.8z"/><path d="M500.5 296.5c0 58.9-47.8 106.7-106.7 106.7-58.9 0-106.7-47.8-106.7-106.7 0-58.9 47.8-106.7 106.7-106.7 58.9 0 106.7 47.8 106.7 106.7z"/></g></svg>
